<svg xmlns="http://www.w3.org/2000/svg" xmlns:xlink="http://www.w3.org/1999/xlink" contentStyleType="text/css" data-diagram-type="CLASS" height="551px" preserveAspectRatio="none" style="width:484px;height:551px;background:#FFFFFF;" version="1.1" viewBox="0 0 484 551" width="484px" zoomAndPan="magnify"><defs/><g><!--class Client--><g class="entity" data-entity="Client" data-source-line="1" data-uid="ent0002" id="entity_Client"><rect fill="#F1F1F1" height="48" rx="2.5" ry="2.5" style="stroke:#181818;stroke-width:0.5;" width="72.5303" x="118.36" y="7"/><ellipse cx="133.36" cy="23" fill="#ADD1B2" rx="11" ry="11" style="stroke:#181818;stroke-width:1;"/><path d="M136.3288,28.6406 Q135.7506,28.9375 135.11,29.0781 Q134.4694,29.2344 133.7663,29.2344 Q131.2663,29.2344 129.9381,27.5938 Q128.6256,25.9375 128.6256,22.8125 Q128.6256,19.6875 129.9381,18.0313 Q131.2663,16.375 133.7663,16.375 Q134.4694,16.375 135.11,16.5313 Q135.7663,16.6875 136.3288,16.9844 L136.3288,19.7031 Q135.7038,19.125 135.11,18.8594 Q134.5163,18.5781 133.8913,18.5781 Q132.5475,18.5781 131.86,19.6563 Q131.1725,20.7188 131.1725,22.8125 Q131.1725,24.9063 131.86,25.9844 Q132.5475,27.0469 133.8913,27.0469 Q134.5163,27.0469 135.11,26.7813 Q135.7038,26.5 136.3288,25.9219 L136.3288,28.6406 Z " fill="#000000"/><text fill="#000000" font-family="sans-serif" font-size="14" lengthAdjust="spacing" textLength="40.5303" x="147.36" y="27.8467">Client</text><line style="stroke:#181818;stroke-width:0.5;" x1="119.36" x2="189.8903" y1="39" y2="39"/><line style="stroke:#181818;stroke-width:0.5;" x1="119.36" x2="189.8903" y1="47" y2="47"/></g><!--class Target--><g class="entity" data-entity="Target" data-source-line="2" data-uid="ent0003" id="entity_Target"><rect fill="#F1F1F1" height="64.2969" rx="2.5" ry="2.5" style="stroke:#181818;stroke-width:0.5;" width="90.4492" x="207.4" y="115"/><ellipse cx="228.058" cy="131" fill="#B4A7E5" rx="11" ry="11" style="stroke:#181818;stroke-width:1;"/><path d="M223.9798,126.7656 L223.9798,124.6094 L231.3705,124.6094 L231.3705,126.7656 L228.9017,126.7656 L228.9017,134.8438 L231.3705,134.8438 L231.3705,137 L223.9798,137 L223.9798,134.8438 L226.4486,134.8438 L226.4486,126.7656 L223.9798,126.7656 Z " fill="#000000"/><text fill="#000000" font-family="sans-serif" font-size="14" font-style="italic" lengthAdjust="spacing" textLength="45.876" x="243.3153" y="135.8467">Target</text><line style="stroke:#181818;stroke-width:0.5;" x1="208.4" x2="296.8492" y1="147" y2="147"/><line style="stroke:#181818;stroke-width:0.5;" x1="208.4" x2="296.8492" y1="155" y2="155"/><ellipse cx="218.4" cy="168.6484" fill="#84BE84" rx="3" ry="3" style="stroke:#038048;stroke-width:1;"/><text fill="#000000" font-family="sans-serif" font-size="14" lengthAdjust="spacing" textLength="64.4492" x="227.4" y="171.9951">request()</text></g><!--class Adapter--><g class="entity" data-entity="Adapter" data-source-line="5" data-uid="ent0004" id="entity_Adapter"><rect fill="#F1F1F1" height="80.5938" rx="2.5" ry="2.5" style="stroke:#181818;stroke-width:0.5;" width="155.9102" x="174.67" y="239.29"/><ellipse cx="220.481" cy="255.29" fill="#ADD1B2" rx="11" ry="11" style="stroke:#181818;stroke-width:1;"/><path d="M223.4498,260.9306 Q222.8717,261.2275 222.231,261.3681 Q221.5904,261.5244 220.8873,261.5244 Q218.3873,261.5244 217.0592,259.8838 Q215.7467,258.2275 215.7467,255.1025 Q215.7467,251.9775 217.0592,250.3213 Q218.3873,248.665 220.8873,248.665 Q221.5904,248.665 222.231,248.8213 Q222.8873,248.9775 223.4498,249.2744 L223.4498,251.9931 Q222.8248,251.415 222.231,251.1494 Q221.6373,250.8681 221.0123,250.8681 Q219.6685,250.8681 218.981,251.9463 Q218.2935,253.0088 218.2935,255.1025 Q218.2935,257.1963 218.981,258.2744 Q219.6685,259.3369 221.0123,259.3369 Q221.6373,259.3369 222.231,259.0713 Q222.8248,258.79 223.4498,258.2119 L223.4498,260.9306 Z " fill="#000000"/><text fill="#000000" font-family="sans-serif" font-size="14" lengthAdjust="spacing" textLength="55.7881" x="240.981" y="260.1367">Adapter</text><line style="stroke:#181818;stroke-width:0.5;" x1="175.67" x2="329.5802" y1="271.29" y2="271.29"/><rect fill="none" height="6" style="stroke:#C82930;stroke-width:1;" width="6" x="182.67" y="281.9384"/><text fill="#000000" font-family="sans-serif" font-size="14" lengthAdjust="spacing" textLength="129.9102" x="194.67" y="288.2851">adaptee : Adaptee</text><line style="stroke:#181818;stroke-width:0.5;" x1="175.67" x2="329.5802" y1="295.5869" y2="295.5869"/><ellipse cx="185.67" cy="309.2353" fill="#84BE84" rx="3" ry="3" style="stroke:#038048;stroke-width:1;"/><text fill="#000000" font-family="sans-serif" font-size="14" lengthAdjust="spacing" textLength="64.4492" x="194.67" y="312.582">request()</text></g><!--class Adaptee--><g class="entity" data-entity="Adaptee" data-source-line="9" data-uid="ent0005" id="entity_Adaptee"><rect fill="#F1F1F1" height="64.2969" rx="2.5" ry="2.5" style="stroke:#181818;stroke-width:0.5;" width="147.3174" x="77.97" y="379.89"/><ellipse cx="118.4723" cy="395.89" fill="#ADD1B2" rx="11" ry="11" style="stroke:#181818;stroke-width:1;"/><path d="M121.4411,401.5306 Q120.863,401.8275 120.2223,401.9681 Q119.5817,402.1244 118.8786,402.1244 Q116.3786,402.1244 115.0505,400.4838 Q113.738,398.8275 113.738,395.7025 Q113.738,392.5775 115.0505,390.9213 Q116.3786,389.265 118.8786,389.265 Q119.5817,389.265 120.2223,389.4213 Q120.8786,389.5775 121.4411,389.8744 L121.4411,392.5931 Q120.8161,392.015 120.2223,391.7494 Q119.6286,391.4681 119.0036,391.4681 Q117.6598,391.4681 116.9723,392.5463 Q116.2848,393.6088 116.2848,395.7025 Q116.2848,397.7963 116.9723,398.8744 Q117.6598,399.9369 119.0036,399.9369 Q119.6286,399.9369 120.2223,399.6713 Q120.8161,399.39 121.4411,398.8119 L121.4411,401.5306 Z " fill="#000000"/><text fill="#000000" font-family="sans-serif" font-size="14" lengthAdjust="spacing" textLength="58.6455" x="138.1395" y="400.7367">Adaptee</text><line style="stroke:#181818;stroke-width:0.5;" x1="78.97" x2="224.2874" y1="411.89" y2="411.89"/><line style="stroke:#181818;stroke-width:0.5;" x1="78.97" x2="224.2874" y1="419.89" y2="419.89"/><ellipse cx="88.97" cy="433.5384" fill="#84BE84" rx="3" ry="3" style="stroke:#038048;stroke-width:1;"/><text fill="#000000" font-family="sans-serif" font-size="14" lengthAdjust="spacing" textLength="121.3174" x="97.97" y="436.8851">specificRequest()</text></g><g class="entity" data-entity="GMN9" data-source-line="17" data-uid="ent0010" id="entity_GMN9"><path d="M226.17,10.86 L226.17,51.1256 A0,0 0 0 0 226.17,51.1256 L330.61,51.1256 L279.87,114.74 L338.61,51.1256 L477.0885,51.1256 A0,0 0 0 0 477.0885,51.1256 L477.0885,20.86 L467.0885,10.86 L226.17,10.86 A0,0 0 0 0 226.17,10.86" fill="#FEFFDD" style="stroke:#181818;stroke-width:0.5;"/><path d="M467.0885,10.86 L467.0885,20.86 L477.0885,20.86 L467.0885,10.86" fill="#FEFFDD" style="stroke:#181818;stroke-width:0.5;"/><text fill="#000000" font-family="sans-serif" font-size="13" lengthAdjust="spacing" textLength="124.998" x="232.17" y="27.9269">&#171;interface&#187; Target:</text><text fill="#000000" font-family="sans-serif" font-size="13" lengthAdjust="spacing" textLength="229.9185" x="232.17" y="43.0597">Interface that Client expects to use</text></g><g class="entity" data-entity="GMN12" data-source-line="19" data-uid="ent0013" id="entity_GMN12"><path d="M260.62,384.34 L260.62,439.7384 A0,0 0 0 0 260.62,439.7384 L448.6395,439.7384 A0,0 0 0 0 448.6395,439.7384 L448.6395,394.34 L438.6395,384.34 L337.54,384.34 L283.51,320.08 L329.54,384.34 L260.62,384.34 A0,0 0 0 0 260.62,384.34" fill="#FEFFDD" style="stroke:#181818;stroke-width:0.5;"/><path d="M438.6395,384.34 L438.6395,394.34 L448.6395,394.34 L438.6395,384.34" fill="#FEFFDD" style="stroke:#181818;stroke-width:0.5;"/><text fill="#000000" font-family="sans-serif" font-size="13" lengthAdjust="spacing" textLength="56.1831" x="266.62" y="401.4069">Adapter:</text><text fill="#000000" font-family="sans-serif" font-size="13" lengthAdjust="spacing" textLength="167.0195" x="266.62" y="416.5397">Converts Target interface</text><text fill="#000000" font-family="sans-serif" font-size="13" lengthAdjust="spacing" textLength="144.0981" x="266.62" y="431.6725">to Adaptee's interface</text></g><g class="entity" data-entity="GMN15" data-source-line="21" data-uid="ent0016" id="entity_GMN15"><path d="M6,504.18 L6,544.4456 A0,0 0 0 0 6,544.4456 L297.2578,544.4456 A0,0 0 0 0 297.2578,544.4456 L297.2578,514.18 L287.2578,504.18 L155.63,504.18 L151.63,444.64 L147.63,504.18 L6,504.18 A0,0 0 0 0 6,504.18" fill="#FEFFDD" style="stroke:#181818;stroke-width:0.5;"/><path d="M287.2578,504.18 L287.2578,514.18 L297.2578,514.18 L287.2578,504.18" fill="#FEFFDD" style="stroke:#181818;stroke-width:0.5;"/><text fill="#000000" font-family="sans-serif" font-size="13" lengthAdjust="spacing" textLength="58.8364" x="12" y="521.2469">Adaptee:</text><text fill="#000000" font-family="sans-serif" font-size="13" lengthAdjust="spacing" textLength="270.2578" x="12" y="536.3797">Existing class with incompatible interface</text></g><!--link Client to Target--><g class="link" data-entity-1="Client" data-entity-2="Target" data-source-line="13" data-uid="lnk6" id="link_Client_Target"><path codeLine="13" d="M174.7,55.37 C189.37,72.46 201.6125,86.7258 217.7125,105.4758" fill="none" id="Client-to-Target" style="stroke:#181818;stroke-width:1;"/><polygon fill="#181818" points="225.53,114.58,224.656,107.4221,217.7125,105.4758,218.5865,112.6337,225.53,114.58" style="stroke:#181818;stroke-width:1;"/></g><!--reverse link Target to Adapter--><g class="link" data-entity-1="Target" data-entity-2="Adapter" data-source-line="14" data-uid="lnk7" id="link_Target_Adapter"><path codeLine="14" d="M252.63,197.72 C252.63,215.52 252.63,219.91 252.63,238.89" fill="none" id="Target-backto-Adapter" style="stroke:#181818;stroke-width:1;"/><polygon fill="none" points="252.63,179.72,246.63,197.72,258.63,197.72,252.63,179.72" style="stroke:#181818;stroke-width:1;"/></g><!--link Adapter to Adaptee--><g class="link" data-entity-1="Adapter" data-entity-2="Adaptee" data-source-line="15" data-uid="lnk8" id="link_Adapter_Adaptee"><path codeLine="15" d="M222.05,320.08 C207.3,339.13 197.2052,352.1707 183.3652,370.0507" fill="none" id="Adapter-to-Adaptee" style="stroke:#181818;stroke-width:1;"/><polygon fill="#181818" points="176.02,379.54,182.8557,377.2437,183.3652,370.0507,176.5295,372.3469,176.02,379.54" style="stroke:#181818;stroke-width:1;"/></g><!--SRC=[VP0z3i8m38NtdC8RVye5gWe98GPMnDWb3MuRgIIXSQ4IS7T2cmGMs1Bx-NlFbgrm3hQjGarCQSAk4XBXABeQ2UuCODNXfKT7ymLxCZdADoTXlN9iSp5-4B9GndypE26THQag9GzVCZQ50CwNmPw55Fc3y-Z9elTR5WsPDeH0neAfmcm6UPxMMQzZjT3xj2CrWiBcW8DFHCupe7SHM1eYStupWscM7eNU6dt5pe-4aCciq1uIaitSf_u3Ykbk7heRb2EbQvXkTbFKU80qPoj8bIr-Q2y0]--></g></svg>