<svg xmlns="http://www.w3.org/2000/svg" xmlns:xlink="http://www.w3.org/1999/xlink" contentStyleType="text/css" data-diagram-type="CLASS" height="880px" preserveAspectRatio="none" style="width:619px;height:880px;background:#FFFFFF;" version="1.1" viewBox="0 0 619 880" width="619px" zoomAndPan="magnify"><defs/><g><!--class Subject--><g class="entity" data-entity="Subject" data-source-line="1" data-uid="ent0002" id="entity_Subject"><rect fill="#F1F1F1" height="105.1563" rx="2.5" ry="2.5" style="stroke:#181818;stroke-width:0.5;" width="248.5781" x="363.64" y="122.4"/><ellipse cx="451.5775" cy="142.5328" fill="#ADD1B2" rx="11" ry="11" style="stroke:#181818;stroke-width:1;"/><path d="M454.5463,148.1734 Q453.9681,148.4703 453.3275,148.6109 Q452.6869,148.7672 451.9838,148.7672 Q449.4838,148.7672 448.1556,147.1266 Q446.8431,145.4703 446.8431,142.3453 Q446.8431,139.2203 448.1556,137.5641 Q449.4838,135.9078 451.9838,135.9078 Q452.6869,135.9078 453.3275,136.0641 Q453.9838,136.2203 454.5463,136.5172 L454.5463,139.2359 Q453.9213,138.6578 453.3275,138.3922 Q452.7338,138.1109 452.1088,138.1109 Q450.765,138.1109 450.0775,139.1891 Q449.39,140.2516 449.39,142.3453 Q449.39,144.4391 450.0775,145.5172 Q450.765,146.5797 452.1088,146.5797 Q452.7338,146.5797 453.3275,146.3141 Q453.9213,146.0328 454.5463,145.4547 L454.5463,148.1734 Z " fill="#000000"/><text fill="#000000" font-family="sans-serif" font-size="12" font-style="italic" lengthAdjust="spacing" textLength="68.2031" x="470.0775" y="138.5387">&#171;interface&#187;</text><text fill="#000000" font-family="sans-serif" font-size="14" lengthAdjust="spacing" textLength="52.3359" x="478.0111" y="154.3639">Subject</text><line style="stroke:#181818;stroke-width:0.5;" x1="364.64" x2="611.2181" y1="162.6656" y2="162.6656"/><line style="stroke:#181818;stroke-width:0.5;" x1="364.64" x2="611.2181" y1="170.6656" y2="170.6656"/><ellipse cx="374.64" cy="184.3141" fill="#84BE84" rx="3" ry="3" style="stroke:#038048;stroke-width:1;"/><text fill="#000000" font-family="sans-serif" font-size="14" lengthAdjust="spacing" textLength="204.832" x="383.64" y="187.6607">register(observer : Observer)</text><ellipse cx="374.64" cy="200.6109" fill="#84BE84" rx="3" ry="3" style="stroke:#038048;stroke-width:1;"/><text fill="#000000" font-family="sans-serif" font-size="14" lengthAdjust="spacing" textLength="222.5781" x="383.64" y="203.9576">unregister(observer : Observer)</text><ellipse cx="374.64" cy="216.9078" fill="#84BE84" rx="3" ry="3" style="stroke:#038048;stroke-width:1;"/><text fill="#000000" font-family="sans-serif" font-size="14" lengthAdjust="spacing" textLength="122.4727" x="383.64" y="220.2545">notifyObservers()</text></g><!--class ConcreteSubject--><g class="entity" data-entity="ConcreteSubject" data-source-line="7" data-uid="ent0003" id="entity_ConcreteSubject"><rect fill="#F1F1F1" height="162.0781" rx="2.5" ry="2.5" style="stroke:#181818;stroke-width:0.5;" width="248.5781" x="363.64" y="288.55"/><ellipse cx="425.8197" cy="304.55" fill="#ADD1B2" rx="11" ry="11" style="stroke:#181818;stroke-width:1;"/><path d="M428.7884,310.1906 Q428.2103,310.4875 427.5697,310.6281 Q426.9291,310.7844 426.2259,310.7844 Q423.7259,310.7844 422.3978,309.1438 Q421.0853,307.4875 421.0853,304.3625 Q421.0853,301.2375 422.3978,299.5813 Q423.7259,297.925 426.2259,297.925 Q426.9291,297.925 427.5697,298.0813 Q428.2259,298.2375 428.7884,298.5344 L428.7884,301.2531 Q428.1634,300.675 427.5697,300.4094 Q426.9759,300.1281 426.3509,300.1281 Q425.0072,300.1281 424.3197,301.2063 Q423.6322,302.2688 423.6322,304.3625 Q423.6322,306.4563 424.3197,307.5344 Q425.0072,308.5969 426.3509,308.5969 Q426.9759,308.5969 427.5697,308.3313 Q428.1634,308.05 428.7884,307.4719 L428.7884,310.1906 Z " fill="#000000"/><text fill="#000000" font-family="sans-serif" font-size="14" lengthAdjust="spacing" textLength="115.7188" x="446.3197" y="309.3967">ConcreteSubject</text><line style="stroke:#181818;stroke-width:0.5;" x1="364.64" x2="611.2181" y1="320.55" y2="320.55"/><rect fill="none" height="6" style="stroke:#C82930;stroke-width:1;" width="6" x="371.64" y="331.1984"/><text fill="#000000" font-family="sans-serif" font-size="14" lengthAdjust="spacing" textLength="194.8379" x="383.64" y="337.5451">observers : List&lt;Observer&gt;</text><rect fill="none" height="6" style="stroke:#C82930;stroke-width:1;" width="6" x="371.64" y="347.4953"/><text fill="#000000" font-family="sans-serif" font-size="14" lengthAdjust="spacing" textLength="87.8008" x="383.64" y="353.842">subjectState</text><line style="stroke:#181818;stroke-width:0.5;" x1="364.64" x2="611.2181" y1="361.1438" y2="361.1438"/><ellipse cx="374.64" cy="374.7922" fill="#84BE84" rx="3" ry="3" style="stroke:#038048;stroke-width:1;"/><text fill="#000000" font-family="sans-serif" font-size="14" lengthAdjust="spacing" textLength="204.832" x="383.64" y="378.1389">register(observer : Observer)</text><ellipse cx="374.64" cy="391.0891" fill="#84BE84" rx="3" ry="3" style="stroke:#038048;stroke-width:1;"/><text fill="#000000" font-family="sans-serif" font-size="14" lengthAdjust="spacing" textLength="222.5781" x="383.64" y="394.4357">unregister(observer : Observer)</text><ellipse cx="374.64" cy="407.3859" fill="#84BE84" rx="3" ry="3" style="stroke:#038048;stroke-width:1;"/><text fill="#000000" font-family="sans-serif" font-size="14" lengthAdjust="spacing" textLength="122.4727" x="383.64" y="410.7326">notifyObservers()</text><ellipse cx="374.64" cy="423.6828" fill="#84BE84" rx="3" ry="3" style="stroke:#038048;stroke-width:1;"/><text fill="#000000" font-family="sans-serif" font-size="14" lengthAdjust="spacing" textLength="123.3066" x="383.64" y="427.0295">getSubjectState()</text><ellipse cx="374.64" cy="439.9797" fill="#84BE84" rx="3" ry="3" style="stroke:#038048;stroke-width:1;"/><text fill="#000000" font-family="sans-serif" font-size="14" lengthAdjust="spacing" textLength="157.1787" x="383.64" y="443.3264">setSubjectState(state)</text></g><!--class Observer--><g class="entity" data-entity="Observer" data-source-line="17" data-uid="ent0004" id="entity_Observer"><rect fill="#F1F1F1" height="72.5625" rx="2.5" ry="2.5" style="stroke:#181818;stroke-width:0.5;" width="96.2236" x="199.82" y="527.63"/><ellipse cx="214.82" cy="547.7628" fill="#ADD1B2" rx="11" ry="11" style="stroke:#181818;stroke-width:1;"/><path d="M217.7888,553.4034 Q217.2106,553.7003 216.57,553.8409 Q215.9294,553.9972 215.2263,553.9972 Q212.7263,553.9972 211.3981,552.3566 Q210.0856,550.7003 210.0856,547.5753 Q210.0856,544.4503 211.3981,542.7941 Q212.7263,541.1378 215.2263,541.1378 Q215.9294,541.1378 216.57,541.2941 Q217.2263,541.4503 217.7888,541.7472 L217.7888,544.4659 Q217.1638,543.8878 216.57,543.6222 Q215.9763,543.3409 215.3513,543.3409 Q214.0075,543.3409 213.32,544.4191 Q212.6325,545.4816 212.6325,547.5753 Q212.6325,549.6691 213.32,550.7472 Q214.0075,551.8097 215.3513,551.8097 Q215.9763,551.8097 216.57,551.5441 Q217.1638,551.2628 217.7888,550.6847 L217.7888,553.4034 Z " fill="#000000"/><text fill="#000000" font-family="sans-serif" font-size="12" font-style="italic" lengthAdjust="spacing" textLength="68.2031" x="226.8303" y="543.7687">&#171;interface&#187;</text><text fill="#000000" font-family="sans-serif" font-size="14" lengthAdjust="spacing" textLength="64.2236" x="228.82" y="559.5939">Observer</text><line style="stroke:#181818;stroke-width:0.5;" x1="200.82" x2="295.0436" y1="567.8956" y2="567.8956"/><line style="stroke:#181818;stroke-width:0.5;" x1="200.82" x2="295.0436" y1="575.8956" y2="575.8956"/><ellipse cx="210.82" cy="589.5441" fill="#84BE84" rx="3" ry="3" style="stroke:#038048;stroke-width:1;"/><text fill="#000000" font-family="sans-serif" font-size="14" lengthAdjust="spacing" textLength="60.252" x="219.82" y="592.8907">update()</text></g><!--class ConcreteObserverA--><g class="entity" data-entity="ConcreteObserverA" data-source-line="21" data-uid="ent0005" id="entity_ConcreteObserverA"><rect fill="#F1F1F1" height="80.5938" rx="2.5" ry="2.5" style="stroke:#181818;stroke-width:0.5;" width="169.1836" x="62.34" y="661.19"/><ellipse cx="77.34" cy="677.19" fill="#ADD1B2" rx="11" ry="11" style="stroke:#181818;stroke-width:1;"/><path d="M80.3088,682.8306 Q79.7306,683.1275 79.09,683.2681 Q78.4494,683.4244 77.7463,683.4244 Q75.2463,683.4244 73.9181,681.7838 Q72.6056,680.1275 72.6056,677.0025 Q72.6056,673.8775 73.9181,672.2213 Q75.2463,670.565 77.7463,670.565 Q78.4494,670.565 79.09,670.7213 Q79.7463,670.8775 80.3088,671.1744 L80.3088,673.8931 Q79.6838,673.315 79.09,673.0494 Q78.4963,672.7681 77.8713,672.7681 Q76.5275,672.7681 75.84,673.8463 Q75.1525,674.9088 75.1525,677.0025 Q75.1525,679.0963 75.84,680.1744 Q76.5275,681.2369 77.8713,681.2369 Q78.4963,681.2369 79.09,680.9713 Q79.6838,680.69 80.3088,680.1119 L80.3088,682.8306 Z " fill="#000000"/><text fill="#000000" font-family="sans-serif" font-size="14" lengthAdjust="spacing" textLength="137.1836" x="91.34" y="682.0367">ConcreteObserverA</text><line style="stroke:#181818;stroke-width:0.5;" x1="63.34" x2="230.5236" y1="693.19" y2="693.19"/><rect fill="none" height="6" style="stroke:#C82930;stroke-width:1;" width="6" x="70.34" y="703.8384"/><text fill="#000000" font-family="sans-serif" font-size="14" lengthAdjust="spacing" textLength="98.8271" x="82.34" y="710.1851">observerState</text><line style="stroke:#181818;stroke-width:0.5;" x1="63.34" x2="230.5236" y1="717.4869" y2="717.4869"/><ellipse cx="73.34" cy="731.1353" fill="#84BE84" rx="3" ry="3" style="stroke:#038048;stroke-width:1;"/><text fill="#000000" font-family="sans-serif" font-size="14" lengthAdjust="spacing" textLength="60.252" x="82.34" y="734.482">update()</text></g><!--class ConcreteObserverB--><g class="entity" data-entity="ConcreteObserverB" data-source-line="26" data-uid="ent0006" id="entity_ConcreteObserverB"><rect fill="#F1F1F1" height="80.5938" rx="2.5" ry="2.5" style="stroke:#181818;stroke-width:0.5;" width="169.2109" x="303.33" y="661.19"/><ellipse cx="318.33" cy="677.19" fill="#ADD1B2" rx="11" ry="11" style="stroke:#181818;stroke-width:1;"/><path d="M321.2988,682.8306 Q320.7206,683.1275 320.08,683.2681 Q319.4394,683.4244 318.7363,683.4244 Q316.2363,683.4244 314.9081,681.7838 Q313.5956,680.1275 313.5956,677.0025 Q313.5956,673.8775 314.9081,672.2213 Q316.2363,670.565 318.7363,670.565 Q319.4394,670.565 320.08,670.7213 Q320.7363,670.8775 321.2988,671.1744 L321.2988,673.8931 Q320.6738,673.315 320.08,673.0494 Q319.4863,672.7681 318.8613,672.7681 Q317.5175,672.7681 316.83,673.8463 Q316.1425,674.9088 316.1425,677.0025 Q316.1425,679.0963 316.83,680.1744 Q317.5175,681.2369 318.8613,681.2369 Q319.4863,681.2369 320.08,680.9713 Q320.6738,680.69 321.2988,680.1119 L321.2988,682.8306 Z " fill="#000000"/><text fill="#000000" font-family="sans-serif" font-size="14" lengthAdjust="spacing" textLength="137.2109" x="332.33" y="682.0367">ConcreteObserverB</text><line style="stroke:#181818;stroke-width:0.5;" x1="304.33" x2="471.5409" y1="693.19" y2="693.19"/><rect fill="none" height="6" style="stroke:#C82930;stroke-width:1;" width="6" x="311.33" y="703.8384"/><text fill="#000000" font-family="sans-serif" font-size="14" lengthAdjust="spacing" textLength="98.8271" x="323.33" y="710.1851">observerState</text><line style="stroke:#181818;stroke-width:0.5;" x1="304.33" x2="471.5409" y1="717.4869" y2="717.4869"/><ellipse cx="314.33" cy="731.1353" fill="#84BE84" rx="3" ry="3" style="stroke:#038048;stroke-width:1;"/><text fill="#000000" font-family="sans-serif" font-size="14" lengthAdjust="spacing" textLength="60.252" x="323.33" y="734.482">update()</text></g><g class="entity" data-entity="GMN11" data-source-line="36" data-uid="ent0012" id="entity_GMN11"><path d="M374.91,6 L374.91,61.3984 A0,0 0 0 0 374.91,61.3984 L483.93,61.3984 L487.93,122.05 L491.93,61.3984 L600.9647,61.3984 A0,0 0 0 0 600.9647,61.3984 L600.9647,16 L590.9647,6 L374.91,6 A0,0 0 0 0 374.91,6" fill="#FEFFDD" style="stroke:#181818;stroke-width:0.5;"/><path d="M590.9647,6 L590.9647,16 L600.9647,16 L590.9647,6" fill="#FEFFDD" style="stroke:#181818;stroke-width:0.5;"/><text fill="#000000" font-family="sans-serif" font-size="13" lengthAdjust="spacing" textLength="130.9966" x="380.91" y="23.0669">&#171;interface&#187; Subject:</text><text fill="#000000" font-family="sans-serif" font-size="13" lengthAdjust="spacing" textLength="192.0103" x="380.91" y="38.1997">Defines interface for register,</text><text fill="#000000" font-family="sans-serif" font-size="13" lengthAdjust="spacing" textLength="205.0547" x="380.91" y="53.3325">unregister and notify observers</text></g><g class="entity" data-entity="GMN14" data-source-line="38" data-uid="ent0015" id="entity_GMN14"><path d="M73.32,341.89 L73.32,397.2884 A0,0 0 0 0 73.32,397.2884 L203.57,397.2884 L239.26,527.41 L211.57,397.2884 L328.5485,397.2884 A0,0 0 0 0 328.5485,397.2884 L328.5485,351.89 L318.5485,341.89 L73.32,341.89 A0,0 0 0 0 73.32,341.89" fill="#FEFFDD" style="stroke:#181818;stroke-width:0.5;"/><path d="M318.5485,341.89 L318.5485,351.89 L328.5485,351.89 L318.5485,341.89" fill="#FEFFDD" style="stroke:#181818;stroke-width:0.5;"/><text fill="#000000" font-family="sans-serif" font-size="13" lengthAdjust="spacing" textLength="142.0352" x="79.32" y="358.9569">&#171;interface&#187; Observer:</text><text fill="#000000" font-family="sans-serif" font-size="13" lengthAdjust="spacing" textLength="234.2285" x="79.32" y="374.0897">Defines update interface for objects</text><text fill="#000000" font-family="sans-serif" font-size="13" lengthAdjust="spacing" textLength="213.5669" x="79.32" y="389.2225">to be notified of subject changes</text></g><g class="entity" data-entity="GMN17" data-source-line="40" data-uid="ent0018" id="entity_GMN17"><path d="M377.84,536.21 L377.84,591.6084 A0,0 0 0 0 377.84,591.6084 L598.0231,591.6084 A0,0 0 0 0 598.0231,591.6084 L598.0231,546.21 L588.0231,536.21 L491.93,536.21 L487.93,451.04 L483.93,536.21 L377.84,536.21 A0,0 0 0 0 377.84,536.21" fill="#FEFFDD" style="stroke:#181818;stroke-width:0.5;"/><path d="M588.0231,536.21 L588.0231,546.21 L598.0231,546.21 L588.0231,536.21" fill="#FEFFDD" style="stroke:#181818;stroke-width:0.5;"/><text fill="#000000" font-family="sans-serif" font-size="13" lengthAdjust="spacing" textLength="111.833" x="383.84" y="553.2769">ConcreteSubject:</text><text fill="#000000" font-family="sans-serif" font-size="13" lengthAdjust="spacing" textLength="155.9111" x="383.84" y="568.4097">Maintains state, notifies</text><text fill="#000000" font-family="sans-serif" font-size="13" lengthAdjust="spacing" textLength="199.1831" x="383.84" y="583.5425">observers when state changes</text></g><g class="entity" data-entity="GMN20" data-source-line="42" data-uid="ent0021" id="entity_GMN20"><path d="M6,802.79 L6,873.3213 A0,0 0 0 0 6,873.3213 L249.8662,873.3213 A0,0 0 0 0 249.8662,873.3213 L249.8662,812.79 L239.8662,802.79 L136.78,802.79 L141.34,742.14 L128.78,802.79 L6,802.79 A0,0 0 0 0 6,802.79" fill="#FEFFDD" style="stroke:#181818;stroke-width:0.5;"/><path d="M239.8662,802.79 L239.8662,812.79 L249.8662,812.79 L239.8662,802.79" fill="#FEFFDD" style="stroke:#181818;stroke-width:0.5;"/><text fill="#000000" font-family="sans-serif" font-size="13" lengthAdjust="spacing" textLength="131.7646" x="12" y="819.8569">ConcreteObserverA:</text><text fill="#000000" font-family="sans-serif" font-size="13" lengthAdjust="spacing" textLength="139.5405" x="12" y="834.9897">Stores concrete state</text><text fill="#000000" font-family="sans-serif" font-size="13" lengthAdjust="spacing" textLength="154.394" x="12" y="850.1225">Implements update() to</text><text fill="#000000" font-family="sans-serif" font-size="13" lengthAdjust="spacing" textLength="222.8662" x="12" y="865.2553">keep state consistent with subject</text></g><g class="entity" data-entity="GMN23" data-source-line="44" data-uid="ent0024" id="entity_GMN23"><path d="M285,802.79 L285,873.3213 A0,0 0 0 0 285,873.3213 L528.8662,873.3213 A0,0 0 0 0 528.8662,873.3213 L528.8662,812.79 L518.8662,802.79 L406.08,802.79 L393.53,742.14 L398.08,802.79 L285,802.79 A0,0 0 0 0 285,802.79" fill="#FEFFDD" style="stroke:#181818;stroke-width:0.5;"/><path d="M518.8662,802.79 L518.8662,812.79 L528.8662,812.79 L518.8662,802.79" fill="#FEFFDD" style="stroke:#181818;stroke-width:0.5;"/><text fill="#000000" font-family="sans-serif" font-size="13" lengthAdjust="spacing" textLength="131.79" x="291" y="819.8569">ConcreteObserverB:</text><text fill="#000000" font-family="sans-serif" font-size="13" lengthAdjust="spacing" textLength="139.5405" x="291" y="834.9897">Stores concrete state</text><text fill="#000000" font-family="sans-serif" font-size="13" lengthAdjust="spacing" textLength="154.394" x="291" y="850.1225">Implements update() to</text><text fill="#000000" font-family="sans-serif" font-size="13" lengthAdjust="spacing" textLength="222.8662" x="291" y="865.2553">keep state consistent with subject</text></g><!--reverse link Subject to ConcreteSubject--><g class="link" data-entity-1="Subject" data-entity-2="ConcreteSubject" data-source-line="31" data-uid="lnk7" id="link_Subject_ConcreteSubject"><path codeLine="31" d="M487.93,245.85 C487.93,264.46 487.93,267.9 487.93,288.35" fill="none" id="Subject-backto-ConcreteSubject" style="stroke:#181818;stroke-width:1;"/><polygon fill="none" points="487.93,227.85,481.93,245.85,493.93,245.85,487.93,227.85" style="stroke:#181818;stroke-width:1;"/></g><!--reverse link Observer to ConcreteObserverA--><g class="link" data-entity-1="Observer" data-entity-2="ConcreteObserverA" data-source-line="32" data-uid="lnk8" id="link_Observer_ConcreteObserverA"><path codeLine="32" d="M210.6412,614.9708 C196.8412,633.4808 190.7,641.73 176.49,660.81" fill="none" id="Observer-backto-ConcreteObserverA" style="stroke:#181818;stroke-width:1;"/><polygon fill="none" points="221.4,600.54,205.8309,611.3846,215.4515,618.5571,221.4,600.54" style="stroke:#181818;stroke-width:1;"/></g><!--reverse link Observer to ConcreteObserverB--><g class="link" data-entity-1="Observer" data-entity-2="ConcreteObserverB" data-source-line="33" data-uid="lnk9" id="link_Observer_ConcreteObserverB"><path codeLine="33" d="M297.6525,613.06 C316.7725,631.57 327.26,641.73 346.96,660.81" fill="none" id="Observer-backto-ConcreteObserverB" style="stroke:#181818;stroke-width:1;"/><polygon fill="none" points="284.72,600.54,293.4792,617.3708,301.8259,608.7491,284.72,600.54" style="stroke:#181818;stroke-width:1;"/></g><!--link ConcreteSubject to Observer--><g class="link" data-entity-1="ConcreteSubject" data-entity-2="Observer" data-source-line="34" data-uid="lnk10" id="link_ConcreteSubject_Observer"><path codeLine="34" d="M387.54,451.04 C354.4,477.6 328.575,498.2968 301.815,519.7368" fill="none" id="ConcreteSubject-to-Observer" style="stroke:#181818;stroke-width:1;"/><polygon fill="#181818" points="292.45,527.24,299.6335,526.6101,301.815,519.7368,294.6314,520.3668,292.45,527.24" style="stroke:#181818;stroke-width:1;"/><text fill="#000000" font-family="sans-serif" font-size="13" lengthAdjust="spacing" textLength="64.1304" x="347.93" y="493.6969">observers</text></g><!--SRC=[jLF1Ri8m3BtdAto4ZVv0XP36TfcqQOTUSscB2zt0gH8pD6txzwKDRba0mOLALEZPViz-TijrxXnas-8TIuRfj2P6M-KbpcRmhS0_znQNjVFeo1GExITQIE5j_tSSKhPqHH8Phgil0Treh7wLAZlzHqEbHKRf8oWdmkKysOkddqhnBCHTICyuPxnrhnsyHCuED0Ls4UpQzy5umdFQtssp25n7TaZTmr7gFtl2_6UhvrTMzqVmaoJnHjGmmc6qR_12VAxY3IV9tM1B2lscbVBM8x1fm5HobsbadC2Qdh2g2HtqKQYC1LdmHDEmRSXf0M6lv-IaeLYlnmV1u6MaQxgsd2OsK60Ggt7HKkzF5SfLJaiKtS8mcqqRZ_n9Zm1DhxbNypy7tNrDXD_h3H_AReKKuXUb-kMb9o1D6Hlh1otteK2gwNdJh763nEB1QEpjq_I1s8Ym8TTQJWoxcbSo-yL6vka9w0QD_040]--></g></svg>