<svg xmlns="http://www.w3.org/2000/svg" xmlns:xlink="http://www.w3.org/1999/xlink" contentStyleType="text/css" data-diagram-type="CLASS" height="503px" preserveAspectRatio="none" style="width:668px;height:503px;background:#FFFFFF;" version="1.1" viewBox="0 0 668 503" width="668px" zoomAndPan="magnify"><defs/><g><!--class Client--><g class="entity" data-entity="Client" data-source-line="1" data-uid="ent0002" id="entity_Client"><rect fill="#F1F1F1" height="48" rx="2.5" ry="2.5" style="stroke:#181818;stroke-width:0.5;" width="72.5303" x="146.71" y="7"/><ellipse cx="161.71" cy="23" fill="#ADD1B2" rx="11" ry="11" style="stroke:#181818;stroke-width:1;"/><path d="M164.6788,28.6406 Q164.1006,28.9375 163.46,29.0781 Q162.8194,29.2344 162.1163,29.2344 Q159.6163,29.2344 158.2881,27.5938 Q156.9756,25.9375 156.9756,22.8125 Q156.9756,19.6875 158.2881,18.0313 Q159.6163,16.375 162.1163,16.375 Q162.8194,16.375 163.46,16.5313 Q164.1163,16.6875 164.6788,16.9844 L164.6788,19.7031 Q164.0538,19.125 163.46,18.8594 Q162.8663,18.5781 162.2413,18.5781 Q160.8975,18.5781 160.21,19.6563 Q159.5225,20.7188 159.5225,22.8125 Q159.5225,24.9063 160.21,25.9844 Q160.8975,27.0469 162.2413,27.0469 Q162.8663,27.0469 163.46,26.7813 Q164.0538,26.5 164.6788,25.9219 L164.6788,28.6406 Z " fill="#000000"/><text fill="#000000" font-family="sans-serif" font-size="14" lengthAdjust="spacing" textLength="40.5303" x="175.71" y="27.8467">Client</text><line style="stroke:#181818;stroke-width:0.5;" x1="147.71" x2="218.2403" y1="39" y2="39"/><line style="stroke:#181818;stroke-width:0.5;" x1="147.71" x2="218.2403" y1="47" y2="47"/></g><!--class Component--><g class="entity" data-entity="Component" data-source-line="2" data-uid="ent0003" id="entity_Component"><rect fill="#F1F1F1" height="72.5625" rx="2.5" ry="2.5" style="stroke:#181818;stroke-width:0.5;" width="113.2793" x="263.34" y="116"/><ellipse cx="278.34" cy="136.1328" fill="#ADD1B2" rx="11" ry="11" style="stroke:#181818;stroke-width:1;"/><path d="M281.3088,141.7734 Q280.7306,142.0703 280.09,142.2109 Q279.4494,142.3672 278.7463,142.3672 Q276.2463,142.3672 274.9181,140.7266 Q273.6056,139.0703 273.6056,135.9453 Q273.6056,132.8203 274.9181,131.1641 Q276.2463,129.5078 278.7463,129.5078 Q279.4494,129.5078 280.09,129.6641 Q280.7463,129.8203 281.3088,130.1172 L281.3088,132.8359 Q280.6838,132.2578 280.09,131.9922 Q279.4963,131.7109 278.8713,131.7109 Q277.5275,131.7109 276.84,132.7891 Q276.1525,133.8516 276.1525,135.9453 Q276.1525,138.0391 276.84,139.1172 Q277.5275,140.1797 278.8713,140.1797 Q279.4963,140.1797 280.09,139.9141 Q280.6838,139.6328 281.3088,139.0547 L281.3088,141.7734 Z " fill="#000000"/><text fill="#000000" font-family="sans-serif" font-size="12" font-style="italic" lengthAdjust="spacing" textLength="68.2031" x="298.8781" y="132.1387">&#171;interface&#187;</text><text fill="#000000" font-family="sans-serif" font-size="14" lengthAdjust="spacing" textLength="81.2793" x="292.34" y="147.9639">Component</text><line style="stroke:#181818;stroke-width:0.5;" x1="264.34" x2="375.6193" y1="156.2656" y2="156.2656"/><line style="stroke:#181818;stroke-width:0.5;" x1="264.34" x2="375.6193" y1="164.2656" y2="164.2656"/><ellipse cx="274.34" cy="177.9141" fill="#84BE84" rx="3" ry="3" style="stroke:#038048;stroke-width:1;"/><text fill="#000000" font-family="sans-serif" font-size="14" lengthAdjust="spacing" textLength="87.1309" x="283.34" y="181.2607">displayInfo()</text></g><!--class Leaf--><g class="entity" data-entity="Leaf" data-source-line="5" data-uid="ent0004" id="entity_Leaf"><rect fill="#F1F1F1" height="64.2969" rx="2.5" ry="2.5" style="stroke:#181818;stroke-width:0.5;" width="113.1309" x="73.41" y="298.15"/><ellipse cx="111.4545" cy="314.15" fill="#ADD1B2" rx="11" ry="11" style="stroke:#181818;stroke-width:1;"/><path d="M114.4232,319.7906 Q113.8451,320.0875 113.2045,320.2281 Q112.5639,320.3844 111.8607,320.3844 Q109.3607,320.3844 108.0326,318.7438 Q106.7201,317.0875 106.7201,313.9625 Q106.7201,310.8375 108.0326,309.1813 Q109.3607,307.525 111.8607,307.525 Q112.5639,307.525 113.2045,307.6813 Q113.8607,307.8375 114.4232,308.1344 L114.4232,310.8531 Q113.7982,310.275 113.2045,310.0094 Q112.6107,309.7281 111.9857,309.7281 Q110.642,309.7281 109.9545,310.8063 Q109.267,311.8688 109.267,313.9625 Q109.267,316.0563 109.9545,317.1344 Q110.642,318.1969 111.9857,318.1969 Q112.6107,318.1969 113.2045,317.9313 Q113.7982,317.65 114.4232,317.0719 L114.4232,319.7906 Z " fill="#000000"/><text fill="#000000" font-family="sans-serif" font-size="14" lengthAdjust="spacing" textLength="29.9209" x="130.5755" y="318.9967">Leaf</text><line style="stroke:#181818;stroke-width:0.5;" x1="74.41" x2="185.5409" y1="330.15" y2="330.15"/><line style="stroke:#181818;stroke-width:0.5;" x1="74.41" x2="185.5409" y1="338.15" y2="338.15"/><ellipse cx="84.41" cy="351.7984" fill="#84BE84" rx="3" ry="3" style="stroke:#038048;stroke-width:1;"/><text fill="#000000" font-family="sans-serif" font-size="14" lengthAdjust="spacing" textLength="87.1309" x="93.41" y="355.1451">displayInfo()</text></g><!--class Composite--><g class="entity" data-entity="Composite" data-source-line="8" data-uid="ent0005" id="entity_Composite"><rect fill="#F1F1F1" height="129.4844" rx="2.5" ry="2.5" style="stroke:#181818;stroke-width:0.5;" width="260.541" x="247.71" y="265.56"/><ellipse cx="336.3721" cy="281.56" fill="#ADD1B2" rx="11" ry="11" style="stroke:#181818;stroke-width:1;"/><path d="M339.3409,287.2006 Q338.7627,287.4975 338.1221,287.6381 Q337.4815,287.7944 336.7784,287.7944 Q334.2784,287.7944 332.9502,286.1538 Q331.6377,284.4975 331.6377,281.3725 Q331.6377,278.2475 332.9502,276.5913 Q334.2784,274.935 336.7784,274.935 Q337.4815,274.935 338.1221,275.0913 Q338.7784,275.2475 339.3409,275.5444 L339.3409,278.2631 Q338.7159,277.685 338.1221,277.4194 Q337.5284,277.1381 336.9034,277.1381 Q335.5596,277.1381 334.8721,278.2163 Q334.1846,279.2788 334.1846,281.3725 Q334.1846,283.4663 334.8721,284.5444 Q335.5596,285.6069 336.9034,285.6069 Q337.5284,285.6069 338.1221,285.3413 Q338.7159,285.06 339.3409,284.4819 L339.3409,287.2006 Z " fill="#000000"/><text fill="#000000" font-family="sans-serif" font-size="14" lengthAdjust="spacing" textLength="74.7168" x="356.8721" y="286.4067">Composite</text><line style="stroke:#181818;stroke-width:0.5;" x1="248.71" x2="507.251" y1="297.56" y2="297.56"/><rect fill="none" height="6" style="stroke:#C82930;stroke-width:1;" width="6" x="255.71" y="308.2084"/><text fill="#000000" font-family="sans-serif" font-size="14" lengthAdjust="spacing" textLength="199.3086" x="267.71" y="314.5551">children : List&lt;Component&gt;</text><line style="stroke:#181818;stroke-width:0.5;" x1="248.71" x2="507.251" y1="321.8569" y2="321.8569"/><ellipse cx="258.71" cy="335.5053" fill="#84BE84" rx="3" ry="3" style="stroke:#038048;stroke-width:1;"/><text fill="#000000" font-family="sans-serif" font-size="14" lengthAdjust="spacing" textLength="139.8701" x="267.71" y="338.852">add(c : Component)</text><ellipse cx="258.71" cy="351.8022" fill="#84BE84" rx="3" ry="3" style="stroke:#038048;stroke-width:1;"/><text fill="#000000" font-family="sans-serif" font-size="14" lengthAdjust="spacing" textLength="166.9883" x="267.71" y="355.1489">remove(c : Component)</text><ellipse cx="258.71" cy="368.0991" fill="#84BE84" rx="3" ry="3" style="stroke:#038048;stroke-width:1;"/><text fill="#000000" font-family="sans-serif" font-size="14" lengthAdjust="spacing" textLength="234.541" x="267.71" y="371.4457">getChild(index : int) : Component</text><ellipse cx="258.71" cy="384.3959" fill="#84BE84" rx="3" ry="3" style="stroke:#038048;stroke-width:1;"/><text fill="#000000" font-family="sans-serif" font-size="14" lengthAdjust="spacing" textLength="87.1309" x="267.71" y="387.7426">displayInfo()</text></g><g class="entity" data-entity="GMN10" data-source-line="21" data-uid="ent0011" id="entity_GMN10"><path d="M254.43,18.43 L254.43,43.5628 A0,0 0 0 0 254.43,43.5628 L440.24,43.5628 L361.34,115.53 L448.24,43.5628 L661.5198,43.5628 A0,0 0 0 0 661.5198,43.5628 L661.5198,28.43 L651.5198,18.43 L254.43,18.43 A0,0 0 0 0 254.43,18.43" fill="#FEFFDD" style="stroke:#181818;stroke-width:0.5;"/><path d="M651.5198,18.43 L651.5198,28.43 L661.5198,28.43 L651.5198,18.43" fill="#FEFFDD" style="stroke:#181818;stroke-width:0.5;"/><text fill="#000000" font-family="sans-serif" font-size="13" lengthAdjust="spacing" textLength="386.0898" x="260.43" y="35.4969">&#171;interface&#187; Component: Base class for Leaf and Composite</text></g><g class="entity" data-entity="GMN13" data-source-line="23" data-uid="ent0014" id="entity_GMN13"><path d="M6,463.61 L6,488.7428 A0,0 0 0 0 6,488.7428 L227.9541,488.7428 A0,0 0 0 0 227.9541,488.7428 L227.9541,473.61 L217.9541,463.61 L122.06,463.61 L127.12,362.88 L114.06,463.61 L6,463.61 A0,0 0 0 0 6,463.61" fill="#FEFFDD" style="stroke:#181818;stroke-width:0.5;"/><path d="M217.9541,463.61 L217.9541,473.61 L227.9541,473.61 L217.9541,463.61" fill="#FEFFDD" style="stroke:#181818;stroke-width:0.5;"/><text fill="#000000" font-family="sans-serif" font-size="13" lengthAdjust="spacing" textLength="200.9541" x="12" y="480.6769">Leaf: Represents individual file</text></g><g class="entity" data-entity="GMN16" data-source-line="25" data-uid="ent0017" id="entity_GMN16"><path d="M262.73,456.04 L262.73,496.3056 A0,0 0 0 0 262.73,496.3056 L519.2154,496.3056 A0,0 0 0 0 519.2154,496.3056 L519.2154,466.04 L509.2154,456.04 L393.22,456.04 L383.75,395.25 L385.22,456.04 L262.73,456.04 A0,0 0 0 0 262.73,456.04" fill="#FEFFDD" style="stroke:#181818;stroke-width:0.5;"/><path d="M509.2154,456.04 L509.2154,466.04 L519.2154,466.04 L509.2154,456.04" fill="#FEFFDD" style="stroke:#181818;stroke-width:0.5;"/><text fill="#000000" font-family="sans-serif" font-size="13" lengthAdjust="spacing" textLength="196.168" x="268.73" y="473.1069">Composite: Represents Folder</text><text fill="#000000" font-family="sans-serif" font-size="13" lengthAdjust="spacing" textLength="235.4854" x="268.73" y="488.2397">contains children (Files and Folders)</text></g><!--link Client to Component--><g class="link" data-entity-1="Client" data-entity-2="Component" data-source-line="16" data-uid="lnk6" id="link_Client_Component"><path codeLine="16" d="M209.72,55.28 C229.42,72.43 247.5199,88.19 269.9499,107.72" fill="none" id="Client-to-Component" style="stroke:#181818;stroke-width:1;"/><polygon fill="#181818" points="279,115.6,277.1016,108.6433,269.9499,107.72,271.8483,114.6767,279,115.6" style="stroke:#181818;stroke-width:1;"/></g><!--reverse link Component to Leaf--><g class="link" data-entity-1="Component" data-entity-2="Leaf" data-source-line="17" data-uid="lnk7" id="link_Component_Leaf"><path codeLine="17" d="M268.3269,201.1343 C233.8469,233.0843 196.93,267.27 163.91,297.86" fill="none" id="Component-backto-Leaf" style="stroke:#181818;stroke-width:1;"/><polygon fill="none" points="281.53,188.9,264.2488,196.7333,272.405,205.5353,281.53,188.9" style="stroke:#181818;stroke-width:1;"/></g><!--reverse link Component to Composite--><g class="link" data-entity-1="Component" data-entity-2="Composite" data-source-line="18" data-uid="lnk8" id="link_Component_Composite"><path codeLine="18" d="M333.0903,206.1783 C336.8603,220.7783 337.05,220.37 341.98,235.56 C345.1,245.18 348.66,255.25 352.29,265.07" fill="none" id="Component-backto-Composite" style="stroke:#181818;stroke-width:1;"/><polygon fill="none" points="328.59,188.75,327.2809,207.6784,338.8998,204.6782,328.59,188.75" style="stroke:#181818;stroke-width:1;"/></g><!--link Composite to Component--><g class="link" data-entity-1="Composite" data-entity-2="Component" data-source-line="19" data-uid="lnk9" id="link_Composite_Component"><path codeLine="19" d="M356.87,265.25 C348.39,239.5 342.6872,222.1966 335.4672,200.2966" fill="none" id="Composite-to-Component" style="stroke:#181818;stroke-width:1;"/><polygon fill="#181818" points="331.71,188.9,329.7897,195.8507,335.4672,200.2966,337.3875,193.3459,331.71,188.9" style="stroke:#181818;stroke-width:1;"/><text fill="#000000" font-family="sans-serif" font-size="13" lengthAdjust="spacing" textLength="52.4443" x="346.98" y="231.6269">children</text></g><!--SRC=[VP31JiCm38RlUGeVMr1VeAfwOD8af9quSmc90vRIk8h310BUdRGPNHWJboZn_-UpVnklHM3d2KDIfZnucZdaDmm3XOJHQOFZ21yAuDQIp5w_tmV7JQk-JbyEgDr_-eeKIhYQElD2taOCqCE190rRnt51Q6iRawMjsYxLY1CVyOhmZ6cty1eA5j-od6TkQzUriLH935rtKnchv9zTjwQwh6r9r3dJBqZk_1DFgS1PJZm3kxEZlzXh9TnfGIWhSnpBMdMmLTU2VEAKU5geYwK_dGyuHvGCahm3IqUohzg38__tsmRiwsi5sBEt61-3uP0q1Tb2GRFFG5d7AYPflm40]--></g></svg>